<mxfile host="app.diagrams.net" modified="2024-03-21T11:49:30.177Z" agent="Mozilla/5.0 (Windows NT 10.0; Win64; x64) AppleWebKit/537.36 (KHTML, like Gecko) Chrome/122.0.0.0 Safari/537.36" etag="zwpPFRI1b6gDV2f0VUhD" version="24.0.7" type="device">
  <diagram name="Página-1" id="4ecV2Iunh6mOYKZUn8bV">
    <mxGraphModel dx="1352" dy="600" grid="1" gridSize="10" guides="1" tooltips="1" connect="1" arrows="1" fold="1" page="1" pageScale="1" pageWidth="827" pageHeight="1169" math="0" shadow="0">
      <root>
        <mxCell id="0" />
        <mxCell id="1" parent="0" />
        <mxCell id="Z2HsCJn56QSiQ5dQvEQ5-10" style="edgeStyle=orthogonalEdgeStyle;rounded=0;orthogonalLoop=1;jettySize=auto;html=1;exitX=0.5;exitY=1;exitDx=0;exitDy=0;entryX=0.5;entryY=0;entryDx=0;entryDy=0;" edge="1" parent="1" source="Z2HsCJn56QSiQ5dQvEQ5-1" target="Z2HsCJn56QSiQ5dQvEQ5-9">
          <mxGeometry relative="1" as="geometry" />
        </mxCell>
        <mxCell id="Z2HsCJn56QSiQ5dQvEQ5-1" value="Inicio" style="ellipse;whiteSpace=wrap;html=1;" vertex="1" parent="1">
          <mxGeometry x="306.5" width="90" height="60" as="geometry" />
        </mxCell>
        <mxCell id="Z2HsCJn56QSiQ5dQvEQ5-7" style="edgeStyle=orthogonalEdgeStyle;rounded=0;orthogonalLoop=1;jettySize=auto;html=1;exitX=0.5;exitY=1;exitDx=0;exitDy=0;entryX=0.5;entryY=0;entryDx=0;entryDy=0;" edge="1" parent="1" source="Z2HsCJn56QSiQ5dQvEQ5-4" target="Z2HsCJn56QSiQ5dQvEQ5-6">
          <mxGeometry relative="1" as="geometry" />
        </mxCell>
        <mxCell id="Z2HsCJn56QSiQ5dQvEQ5-4" value="&lt;p style=&quot;line-height: 120%;&quot;&gt;N&lt;/p&gt;" style="shape=manualInput;whiteSpace=wrap;html=1;" vertex="1" parent="1">
          <mxGeometry x="311.5" y="210" width="80" height="70" as="geometry" />
        </mxCell>
        <mxCell id="Z2HsCJn56QSiQ5dQvEQ5-6" value="Q = N * N" style="rounded=0;whiteSpace=wrap;html=1;" vertex="1" parent="1">
          <mxGeometry x="289" y="330" width="125" height="60" as="geometry" />
        </mxCell>
        <mxCell id="Z2HsCJn56QSiQ5dQvEQ5-9" value="&quot;informe um número inteiro&quot;" style="shape=document;whiteSpace=wrap;html=1;boundedLbl=1;" vertex="1" parent="1">
          <mxGeometry x="291.5" y="100" width="120" height="80" as="geometry" />
        </mxCell>
        <mxCell id="Z2HsCJn56QSiQ5dQvEQ5-11" value="" style="endArrow=classic;html=1;rounded=0;exitX=0.496;exitY=0.838;exitDx=0;exitDy=0;exitPerimeter=0;entryX=0.506;entryY=0.157;entryDx=0;entryDy=0;entryPerimeter=0;" edge="1" parent="1" source="Z2HsCJn56QSiQ5dQvEQ5-9" target="Z2HsCJn56QSiQ5dQvEQ5-4">
          <mxGeometry width="50" height="50" relative="1" as="geometry">
            <mxPoint x="390" y="230" as="sourcePoint" />
            <mxPoint x="350" y="240" as="targetPoint" />
            <Array as="points" />
          </mxGeometry>
        </mxCell>
        <mxCell id="Z2HsCJn56QSiQ5dQvEQ5-16" style="edgeStyle=orthogonalEdgeStyle;rounded=0;orthogonalLoop=1;jettySize=auto;html=1;exitX=0;exitY=0;exitDx=40;exitDy=40;exitPerimeter=0;entryX=0.5;entryY=0;entryDx=0;entryDy=0;" edge="1" parent="1" source="Z2HsCJn56QSiQ5dQvEQ5-12" target="Z2HsCJn56QSiQ5dQvEQ5-15">
          <mxGeometry relative="1" as="geometry" />
        </mxCell>
        <mxCell id="Z2HsCJn56QSiQ5dQvEQ5-12" value="Q" style="shape=display;whiteSpace=wrap;html=1;" vertex="1" parent="1">
          <mxGeometry x="311.5" y="440" width="80" height="40" as="geometry" />
        </mxCell>
        <mxCell id="Z2HsCJn56QSiQ5dQvEQ5-13" style="edgeStyle=orthogonalEdgeStyle;rounded=0;orthogonalLoop=1;jettySize=auto;html=1;exitX=0.5;exitY=1;exitDx=0;exitDy=0;entryX=0;entryY=0;entryDx=40;entryDy=0;entryPerimeter=0;" edge="1" parent="1" source="Z2HsCJn56QSiQ5dQvEQ5-6" target="Z2HsCJn56QSiQ5dQvEQ5-12">
          <mxGeometry relative="1" as="geometry" />
        </mxCell>
        <mxCell id="Z2HsCJn56QSiQ5dQvEQ5-15" value="Fim" style="ellipse;whiteSpace=wrap;html=1;" vertex="1" parent="1">
          <mxGeometry x="306.5" y="520" width="90" height="60" as="geometry" />
        </mxCell>
      </root>
    </mxGraphModel>
  </diagram>
</mxfile>
